<svg width="124" height="30" viewBox="0 0 124 30" fill="none" xmlns="http://www.w3.org/2000/svg">
<path d="M0.824261 1.46035H12.6936V5.0871H5.11042V6.24106H12.5288V9.86781H5.11042V13H0.824261V1.46035ZM22.4205 9.75241C21.948 12.0274 20.4918 13.1649 18.0519 13.1649C16.5683 13.1649 15.4363 12.7307 14.656 11.8625C13.8977 11.0163 13.5185 9.80736 13.5185 8.23577V3.10887H17.475V8.23577C17.475 9.36776 18.2992 9.93375 19.9477 9.93375C21.5963 9.93375 22.4205 9.36776 22.4205 8.23577V3.10887H26.377V13H22.4205V9.75241ZM37.4156 9.6535V12.9505C36.7013 13.0934 35.932 13.1649 35.1077 13.1649C33.1515 13.1649 31.7392 12.8846 30.871 12.3241C29.9588 11.7306 29.5027 10.747 29.5027 9.37325V6.40592H27.1948V3.10887H29.5027V1.46035L33.4592 0.636091V3.10887H37.4156V6.40592H33.4592V8.8787C33.4592 9.26335 33.646 9.52712 34.0197 9.66999C34.3384 9.80187 34.8659 9.86781 35.6023 9.86781C36.1628 9.86781 36.7672 9.79637 37.4156 9.6535ZM47.1483 9.75241C46.6758 12.0274 45.2196 13.1649 42.7798 13.1649C41.2961 13.1649 40.1641 12.7307 39.3838 11.8625C38.6255 11.0163 38.2463 9.80736 38.2463 8.23577V3.10887H42.2028V8.23577C42.2028 9.36776 43.027 9.93375 44.6756 9.93375C46.3241 9.93375 47.1483 9.36776 47.1483 8.23577V3.10887H51.1048V13H47.1483V9.75241ZM56.3736 3.10887V6.70265C56.6044 5.57066 57.077 4.67497 57.7914 4.01556C58.5497 3.3012 59.5058 2.94402 60.6598 2.94402V6.90047C59.0772 6.90047 57.9672 7.0873 57.3298 7.46097C56.6923 7.83463 56.3736 8.47206 56.3736 9.37325V13H52.4172V3.10887H56.3736ZM70.024 7.06532C69.6723 6.29601 68.8591 5.91136 67.5842 5.91136C66.3094 5.91136 65.4961 6.29601 65.1444 7.06532H70.024ZM74.1124 8.71384H65.062C65.3257 9.70296 66.1665 10.1975 67.5842 10.1975C68.6063 10.1975 69.3371 9.92276 69.7767 9.37325H74.0134C73.431 11.901 71.2879 13.1649 67.5842 13.1649C65.4301 13.1649 63.7816 12.7143 62.6386 11.8131C61.5396 10.9339 60.9901 9.68098 60.9901 8.05444C60.9901 6.4279 61.5396 5.17502 62.6386 4.29581C63.7816 3.39462 65.4301 2.94402 67.5842 2.94402C69.7493 2.94402 71.3978 3.39462 72.5298 4.29581C73.6288 5.17502 74.1783 6.4279 74.1783 8.05444C74.1783 8.15335 74.1728 8.26325 74.1618 8.38414L74.1124 8.71384Z" fill="black"/>
<path d="M10.6775 16.5113H14.9485V28.0101H10.6775V24.1498H5.09236V28.0101H0.821348V16.5113H5.09236V20.3716H10.6775V16.5113ZM20.6973 16.5113H26.9396L31.8677 28.0101H27.4324L26.5946 26.0389H21.0423L20.2045 28.0101H15.7692L20.6973 16.5113ZM23.8184 19.5831L22.3236 23.082H25.3133L23.8184 19.5831ZM36.9677 20.1252V21.7679H39.7932C40.5378 21.7679 40.9102 21.4941 40.9102 20.9465C40.9102 20.399 40.5378 20.1252 39.7932 20.1252H36.9677ZM36.9677 25.3818V28.0101H32.6967V16.5113H39.6453C41.4523 16.5113 42.8321 16.9055 43.7849 17.694C44.7158 18.4496 45.1812 19.5338 45.1812 20.9465C45.1812 22.3593 44.7158 23.4434 43.7849 24.1991C42.8321 24.9876 41.4523 25.3818 39.6453 25.3818H36.9677ZM50.6034 20.1252V21.7679H53.4288C54.1735 21.7679 54.5458 21.4941 54.5458 20.9465C54.5458 20.399 54.1735 20.1252 53.4288 20.1252H50.6034ZM50.6034 25.3818V28.0101H46.3324V16.5113H53.281C55.0879 16.5113 56.4678 16.9055 57.4206 17.694C58.3514 18.4496 58.8169 19.5338 58.8169 20.9465C58.8169 22.3593 58.3514 23.4434 57.4206 24.1991C56.4678 24.9876 55.0879 25.3818 53.281 25.3818H50.6034ZM59.968 28.0101V16.5113H64.239V28.0101H59.968ZM75.7437 16.5113H80.0147V28.0101H75.0866L70.1585 21.85V28.0101H65.8875V16.5113H70.8156L75.7437 22.6714V16.5113ZM81.6567 16.5113H93.8127V19.7967H85.9278V20.7823H93.6484V23.7391H85.9278V24.7247H93.8127V28.0101H81.6567V16.5113ZM103.955 23.9034C103.594 23.772 102.844 23.6898 101.705 23.657C98.8464 23.5694 96.919 23.2299 95.9224 22.6385C95.0682 22.1457 94.6411 21.2587 94.6411 19.9773C94.6411 18.7508 95.1394 17.8528 96.136 17.2833C97.242 16.6591 99.0983 16.347 101.705 16.347C104.3 16.347 106.124 16.7084 107.175 17.4312C108.117 18.0663 108.588 19.1012 108.588 20.5359H104.317C104.317 20.1635 104.141 19.9226 103.791 19.8131C103.451 19.6926 102.756 19.6324 101.705 19.6324C100.555 19.6324 99.8101 19.6762 99.4706 19.7638C99.2297 19.8295 99.1092 19.9609 99.1092 20.158C99.1092 20.3442 99.2297 20.4702 99.4706 20.5359C99.7773 20.6016 100.522 20.6563 101.705 20.7001C104.552 20.8096 106.474 21.1601 107.471 21.7515C108.336 22.2662 108.768 23.1642 108.768 24.4455C108.768 25.683 108.27 26.5974 107.273 27.1888C106.156 27.8459 104.3 28.1744 101.705 28.1744C99.0983 28.1744 97.242 27.813 96.136 27.0902C95.1394 26.4441 94.6411 25.4092 94.6411 23.9855H98.9121C98.9121 24.3579 99.0819 24.5988 99.4213 24.7083C99.7608 24.8288 100.522 24.889 101.705 24.889C102.855 24.889 103.599 24.8452 103.939 24.7576C104.191 24.6919 104.317 24.5605 104.317 24.3633C104.317 24.1443 104.196 23.991 103.955 23.9034ZM118.746 23.9034C118.384 23.772 117.634 23.6898 116.495 23.657C113.637 23.5694 111.71 23.2299 110.713 22.6385C109.859 22.1457 109.432 21.2587 109.432 19.9773C109.432 18.7508 109.93 17.8528 110.927 17.2833C112.033 16.6591 113.889 16.347 116.495 16.347C119.091 16.347 120.914 16.7084 121.966 17.4312C122.907 18.0663 123.378 19.1012 123.378 20.5359H119.107C119.107 20.1635 118.932 19.9226 118.582 19.8131C118.242 19.6926 117.547 19.6324 116.495 19.6324C115.345 19.6324 114.601 19.6762 114.261 19.7638C114.02 19.8295 113.9 19.9609 113.9 20.158C113.9 20.3442 114.02 20.4702 114.261 20.5359C114.568 20.6016 115.313 20.6563 116.495 20.7001C119.343 20.8096 121.265 21.1601 122.261 21.7515C123.126 22.2662 123.559 23.1642 123.559 24.4455C123.559 25.683 123.061 26.5974 122.064 27.1888C120.947 27.8459 119.091 28.1744 116.495 28.1744C113.889 28.1744 112.033 27.813 110.927 27.0902C109.93 26.4441 109.432 25.4092 109.432 23.9855H113.703C113.703 24.3579 113.873 24.5988 114.212 24.7083C114.552 24.8288 115.313 24.889 116.495 24.889C117.645 24.889 118.39 24.8452 118.729 24.7576C118.981 24.6919 119.107 24.5605 119.107 24.3633C119.107 24.1443 118.987 23.991 118.746 23.9034Z" fill="black"/>
<path d="M78.2526 9.60526C78.2526 10.2962 78.7551 10.6417 79.7602 10.6417C80.7652 10.6417 81.2678 10.2962 81.2678 9.60526C81.2678 8.91428 80.7652 8.56879 79.7602 8.56879C78.7551 8.56879 78.2526 8.91428 78.2526 9.60526ZM76.9334 7.45693C77.5867 6.94184 78.529 6.68429 79.7602 6.68429C80.9977 6.68429 81.9399 6.94184 82.5869 7.45693C83.2151 7.95947 83.5292 8.67558 83.5292 9.60526C83.5292 10.5349 83.2151 11.2511 82.5869 11.7536C81.9399 12.2687 80.9977 12.5262 79.7602 12.5262C78.529 12.5262 77.5867 12.2687 76.9334 11.7536C76.3053 11.2511 75.9912 10.5349 75.9912 9.60526C75.9912 8.67558 76.3053 7.95947 76.9334 7.45693ZM85.0375 12.432V8.66301H83.7184V6.77852H85.0375C85.0375 5.99331 85.2982 5.4311 85.8196 5.09189C86.3158 4.77153 87.123 4.61134 88.2412 4.61134C88.7123 4.61134 89.152 4.65217 89.5603 4.73384V6.39219C89.3028 6.33566 88.9573 6.30739 88.5238 6.30739C87.7826 6.30739 87.3837 6.46443 87.3272 6.77852H89.5603V8.66301H87.2989V12.432H85.0375Z" fill="black"/>
</svg>
